<svg xmlns="http://www.w3.org/2000/svg" viewBox="0 0 400 15.294"><path fill="#e2e8f0" fill-rule="evenodd" d="M.014 6.318c.039 2.411-.181 4.171-.06 4.323.103.128 2.101-.316 2.21.02.409 1.271 2.151.339 3.773.339.299 0 .59.075.646.167.141.228.807.21 1.046-.029.277-.277 6.725-.298 7.058-.023.913.755 4.534.81 6.165.093 2.968-1.306 7.125-1.742 10.815-1.135 1.662.273 5.338.266 5.683-.011.128-.103 1.058-.391 2.067-.639 1.008-.248 1.957-.516 2.11-.596.997-.521 5.121-.994 8.665-.994 1.992 0 3.661-.064 3.71-.142.118-.191 1.6-.344 5.031-.519 2.93-.15 3.828-.301 4.984-.84.727-.339 2.94-.832 3.733-.832.273 0 .543-.075.6-.167.128-.206 7.025-.229 7.152-.023.049.079.56.189 1.135.244.576.055 1.796.214 2.713.353 2.931.445 6.104.233 7.69-.514 1.231-.58 2.374-.743 6.297-.895 2.289-.089 4.06-.228 4.158-.327.221-.22 1.72-.224 1.855-.004.057.091.326.166.598.166.273 0 1.511.188 2.752.417 1.24.229 2.546.417 2.901.417s.692.075.749.166c.134.217 1.533.217 1.667 0 .13-.21 4.694-.224 4.824-.014.052.084.388.202.747.262.359.061.981.319 1.382.573.402.255 1.251.666 1.888.913.637.248 1.339.54 1.559.65.52.259 3.995.265 4.533.008.22-.105.994-.393 1.719-.64.725-.247 1.513-.585 1.75-.753.237-.167.956-.426 1.598-.575.641-.149 1.316-.341 1.5-.426.479-.222 3.833-.495 6.166-.503 2.903-.009 5.277-.256 6.118-.637.393-.179 1.278-.487 1.966-.685.687-.198 1.38-.43 1.539-.516.373-.202 3.744-.205 3.869-.004.103.168 3.571.16 3.842-.008.091-.057 1.516-.155 3.166-.217 2.623-.099 3.966-.18 5.584-.335.229-.022 1.157-.137 2.062-.256 2.867-.377 7.586.078 8.308.801a.803.803 0 0 0 .491.196c.313 0 .943.246 2.555 1 1.535.717 2.24 1 2.492 1 .127 0 .256.073.286.162.096.278 2.282.497 5.056.506 2.935.009 4.818.198 5.634.564.293.131 1.014.399 1.602.596.589.197 1.376.534 1.75.749 2.073 1.193 8.908 1.151 11.847-.072.183-.077 1.158-.309 2.167-.516 1.008-.207 2.095-.505 2.416-.662 1.872-.914 4.225-1.109 9.995-.828 4.418.216 6.19.128 6.755-.333.857-.7 4.335-.82 5.553-.192a22.74 22.74 0 0 0 1.531.688c.504.205 1.173.496 1.487.646.649.313 8.428.402 11.596.134 2.039-.174 3.389-.192 3.532-.05.211.212 3.81.101 4.875-.15.59-.139 2.416-.327 4.057-.416 2.83-.154 4.313-.369 4.716-.68.099-.077.661-.323 1.25-.547a21.94 21.94 0 0 0 1.615-.684c.3-.152 1.275-.422 2.167-.6.892-.178 1.771-.396 1.955-.485.183-.089.858-.281 1.5-.426l2.03-.462c.475-.109.919-.253.986-.32.169-.169 3.9-.155 3.9.014 0 .122 2.663.461 4.917.627 1.739.127 4.008.452 4.195.601.343.271 4.218.355 6.821.147 3.007-.24 7.038.253 7.982.976.998.765 9.273.725 10.236-.049.297-.239 5.105-.211 5.397.032.296.246 13.501.332 13.806.09.126-.101.642-.314 1.146-.474.504-.16 1.217-.461 1.584-.668.366-.208.909-.43 1.206-.494.297-.064.583-.186.635-.27.052-.085.222-.155.377-.155.155-.001.49-.11.744-.243 1.383-.721 5.663-.778 7.204-.096.788.348 2.986.768 4.917.939.596.052 1.196.137 1.333.188.138.051.363.107.5.125 3.098.411 4.855.752 5.584 1.085.183.083.97.354 1.75.602.779.248 1.52.531 1.646.631.308.241 3.903.238 4.207-.003.844-.673 8.167-.719 9.73-.062 1.882.792 10.86.791 12.284-.001.157-.087 1.507-.24 3-.34 4.138-.278 5.251-1.164 6.382-1.157 1.665.011 4.567.494 4.567-.104 0-.206-.308-1.762.115-2.477.423-.715-.009-.999-.009-1.223L397.5 0H199.399L.162.077-.015 4.13" /></svg>